PathFileType	4	(X/Y/Z)	S:\OneDrive - The University of Tokyo\ìåëÂéˆã∆\ÉoÉCÉÅÉJ\ë™íË\hirabayashi_2\Trimmed\Trimmed_BarR1Hirabayashi1.trc
DataRate	CameraRate	NumFrames	NumMarkers	Units	OrigDataRate	OrigDataStartFrame	OrigNumFrames
200.00	200.00	       29	12	mm	200.00	234	       373
Frame#	Time	BarR0			BarR50			BarR100			BarR130			BarR180			BarR230			BarL0			BarL50			BarL100			BarL130			BarL180			BarL230			
		X1	Y1	Z1	X2	Y2	Z2	X3	Y3	Z3	X4	Y4	Z4	X5	Y5	Z5	X6	Y6	Z6	X7	Y7	Z7	X8	Y8	Z8	X9	Y9	Z9	X10	Y10	Z10	X11	Y11	Z11	X12	Y12	Z12	

234	1.165	-578.07629	2752.55396	1664.31250	-605.92627	2303.74097	1643.89258	-639.90906	1850.87024	1630.53064	-662.64685	1349.34265	1630.59143	-691.24554	903.55652	1644.19092	-714.95587	456.37946	1663.70361	-1114.27844	2808.05762	1664.48206	-1141.09619	2356.22656	1667.49268	-1171.43567	1905.90015	1668.36011	-1199.04089	1404.03247	1668.83337	-1226.84192	952.50891	1667.92908	-1244.88660	506.23831	1667.28101	
235	1.170	-578.05542	2752.58008	1664.31653	-605.88605	2303.74927	1643.85547	-639.88293	1850.84607	1630.51978	-662.59222	1349.32373	1630.58997	-691.23285	903.56195	1644.15979	-714.95477	456.38766	1663.70715	-1114.20007	2808.03369	1664.49036	-1141.09204	2356.22266	1667.47253	-1171.46191	1905.87817	1668.35950	-1199.03271	1404.00537	1668.83386	-1226.84375	952.49170	1667.91113	-1244.85620	506.20682	1667.27576	
236	1.175	-578.07397	2752.55615	1664.31567	-605.91095	2303.74048	1643.86804	-639.87854	1850.85034	1630.49036	-662.59296	1349.32788	1630.55847	-691.22095	903.56195	1644.14929	-714.95551	456.36359	1663.70935	-1114.19421	2808.02271	1664.47241	-1141.08545	2356.19604	1667.47021	-1171.47961	1905.88501	1668.35815	-1199.03149	1404.00903	1668.81604	-1226.82007	952.48328	1667.89844	-1244.88245	506.22122	1667.28125	
237	1.180	-578.05731	2752.56494	1664.30750	-605.89441	2303.73193	1643.84814	-639.87048	1850.84412	1630.47339	-662.58893	1349.33899	1630.52844	-691.22479	903.55566	1644.12830	-714.96680	456.37650	1663.70020	-1114.28552	2808.01147	1664.48169	-1141.09229	2356.18750	1667.47119	-1171.44409	1905.85620	1668.35571	-1199.04102	1403.94055	1668.81909	-1226.82166	952.45441	1667.91211	-1244.84216	506.15433	1667.26660	
238	1.185	-578.07117	2752.55322	1664.30884	-605.89026	2303.73511	1643.82227	-639.89905	1850.84827	1630.44507	-662.59644	1349.32739	1630.49768	-691.23053	903.55383	1644.09900	-714.95502	456.36490	1663.70703	-1114.21570	2808.01050	1664.46887	-1141.09314	2356.17236	1667.47498	-1171.44458	1905.85168	1668.34888	-1199.02820	1403.98914	1668.82446	-1226.83228	952.47516	1667.90869	-1244.86060	506.17850	1667.27283	
239	1.190	-578.05505	2752.55444	1664.32300	-605.89404	2303.72583	1643.80786	-639.89069	1850.84058	1630.42810	-662.60437	1349.33337	1630.49402	-691.22052	903.54449	1644.10999	-714.95880	456.37766	1663.70947	-1114.22070	2807.99780	1664.47559	-1141.10339	2356.19287	1667.47510	-1171.43518	1905.86829	1668.35315	-1198.99463	1404.00061	1668.82874	-1226.81787	952.48260	1667.90747	-1244.86133	506.20337	1667.26428	
240	1.195	-578.07281	2752.55054	1664.31494	-605.88330	2303.73608	1643.79871	-639.89899	1850.83435	1630.40454	-662.57361	1349.31860	1630.46948	-691.30682	903.50952	1643.88611	-714.98328	456.38312	1663.70081	-1114.23828	2808.02905	1664.47388	-1141.10046	2356.21533	1667.48206	-1171.42749	1905.86658	1668.35620	-1198.99963	1404.02209	1668.82678	-1226.83081	952.50885	1667.92053	-1244.86072	506.20978	1667.27881	
241	1.200	-578.08630	2752.55713	1664.29785	-605.87646	2303.71484	1643.80530	-639.89630	1850.83557	1630.41309	-662.57654	1349.33826	1630.46790	-691.31012	903.50146	1643.88708	-714.98041	456.37738	1663.70178	-1114.25134	2808.04639	1664.46277	-1141.07336	2356.23706	1667.49023	-1171.44128	1905.89502	1668.35828	-1198.98145	1404.08679	1668.82397	-1226.81775	952.49133	1667.92212	-1244.87683	506.22388	1667.27747	
242	1.205	-578.07794	2752.55884	1664.30713	-605.91357	2303.73242	1643.83411	-639.88983	1850.82727	1630.45166	-662.58765	1349.34363	1630.49377	-691.19464	903.54712	1644.10571	-714.96765	456.40857	1663.68848	-1114.22559	2808.06226	1664.45776	-1141.06482	2356.25415	1667.47400	-1171.44214	1905.89307	1668.35706	-1198.97168	1404.04919	1668.84924	-1226.83936	952.51294	1667.91296	-1244.87598	506.25302	1667.27039	
243	1.210	-578.07587	2752.56445	1664.31348	-605.90002	2303.75781	1643.84729	-639.84570	1850.86365	1630.48254	-662.57031	1349.34192	1630.54138	-691.21558	903.58075	1644.14771	-714.95374	456.38513	1663.70654	-1114.15820	2808.08105	1664.49207	-1141.06677	2356.26343	1667.48450	-1171.44446	1905.92712	1668.36145	-1198.96777	1404.08606	1668.85242	-1226.82092	952.54865	1667.91553	-1244.86438	506.24603	1667.28271	
244	1.215	-578.04749	2752.58350	1664.31592	-605.89203	2303.75098	1643.86938	-639.85083	1850.87598	1630.53894	-662.56226	1349.33740	1630.59521	-691.27307	903.53314	1643.94458	-714.94482	456.38409	1663.71167	-1114.17920	2808.07129	1664.47656	-1141.09338	2356.22900	1667.47827	-1171.43555	1905.92798	1668.35876	-1198.97913	1404.04871	1668.85400	-1226.85242	952.52789	1667.91406	-1244.88635	506.25360	1667.27649	
245	1.220	-578.07208	2752.60962	1664.31873	-605.89001	2303.75049	1643.93396	-639.86719	1850.87061	1630.58911	-662.55084	1349.34741	1630.66003	-691.26123	903.54144	1644.01611	-714.94720	456.41632	1663.69678	-1114.21094	2808.04761	1664.48584	-1141.08618	2356.24536	1667.49792	-1171.45398	1905.92773	1668.36572	-1198.99536	1404.08154	1668.85291	-1226.84180	952.54901	1667.92017	-1244.88171	506.23239	1667.27075	
246	1.225	-578.02728	2752.63184	1664.30615	-605.86798	2303.80664	1643.99219	-639.82831	1850.88123	1630.64905	-662.55414	1349.35486	1630.74121	-691.19501	903.57355	1644.26245	-714.91821	456.38763	1663.70715	-1114.28772	2808.04883	1664.48291	-1141.07104	2356.24048	1667.47205	-1171.47034	1905.92920	1668.37170	-1199.02930	1404.03601	1668.85046	-1226.85828	952.53522	1667.92590	-1244.88879	506.22125	1667.28052	
247	1.230	-578.02991	2752.62500	1664.30322	-605.84955	2303.75439	1644.02478	-639.86273	1850.88745	1630.72107	-662.53265	1349.34412	1630.80518	-691.24670	903.55542	1644.11865	-714.91608	456.38199	1663.70239	-1114.19812	2808.06372	1664.47900	-1141.13684	2356.23169	1667.48315	-1171.46631	1905.91028	1668.36975	-1199.01355	1404.04346	1668.84924	-1226.86438	952.52679	1667.91711	-1244.90051	506.25827	1667.27869	
248	1.235	-578.01074	2752.61133	1664.31860	-605.87469	2303.78857	1644.08643	-639.85437	1850.90332	1630.76672	-662.53735	1349.34180	1630.85156	-691.26550	903.54785	1644.16187	-714.92780	456.38199	1663.70667	-1114.24011	2808.05078	1664.46582	-1141.10742	2356.22632	1667.48865	-1171.48230	1905.90356	1668.36646	-1199.03528	1404.05176	1668.83813	-1226.85938	952.51038	1667.90845	-1244.90320	506.21057	1667.26038	
249	1.240	-578.01624	2752.63354	1664.30969	-605.87775	2303.76733	1644.09692	-639.85101	1850.91980	1630.79504	-662.53918	1349.35046	1630.90674	-691.26044	903.51996	1644.17749	-714.90320	456.38116	1663.71387	-1114.26904	2808.03198	1664.48340	-1141.10938	2356.20386	1667.48938	-1171.48193	1905.87805	1668.37048	-1199.04236	1404.02527	1668.84253	-1226.86292	952.50000	1667.92029	-1244.90479	506.20145	1667.28784	
250	1.245	-578.02734	2752.62671	1664.30176	-605.87073	2303.74927	1644.12964	-639.83905	1850.87793	1630.81409	-662.54578	1349.33838	1630.93250	-691.28784	903.48737	1644.20276	-714.90723	456.34103	1663.71753	-1114.28589	2808.02026	1664.48584	-1141.09790	2356.21240	1667.47803	-1171.48010	1905.88367	1668.36145	-1199.03638	1404.04236	1668.86084	-1226.85657	952.49731	1667.92065	-1244.89795	506.19708	1667.26660	
251	1.250	-578.01538	2752.60547	1664.30139	-605.87451	2303.73730	1644.10229	-639.85370	1850.86841	1630.81702	-662.55377	1349.33716	1630.94067	-691.28607	903.49683	1644.20068	-714.91833	456.33173	1663.72083	-1114.24158	2807.99927	1664.47852	-1141.10913	2356.20850	1667.48926	-1171.48975	1905.90308	1668.35498	-1199.00891	1404.02710	1668.84277	-1226.86133	952.51587	1667.91687	-1244.90527	506.20218	1667.27710	
252	1.255	-578.04028	2752.59399	1664.30627	-605.89459	2303.73950	1644.10986	-639.86371	1850.86255	1630.80542	-662.56067	1349.33167	1630.92029	-691.21271	903.50964	1644.38416	-714.93054	456.30316	1663.70349	-1114.22388	2808.02661	1664.47168	-1141.11462	2356.23389	1667.46460	-1171.47412	1905.87195	1668.36169	-1199.03882	1404.00586	1668.83459	-1226.84546	952.50507	1667.91956	-1244.88538	506.19458	1667.27417	
253	1.260	-578.03186	2752.58130	1664.30054	-605.90369	2303.73706	1644.08459	-639.87842	1850.86475	1630.77246	-662.57709	1349.31775	1630.88708	-691.31738	903.46631	1644.18811	-714.94574	456.35599	1663.70667	-1114.17566	2808.01416	1664.49561	-1141.07275	2356.24463	1667.48035	-1171.44690	1905.89087	1668.35828	-1198.98743	1404.06946	1668.84875	-1226.84851	952.51105	1667.90930	-1244.88818	506.21133	1667.27515	
254	1.265	-578.04321	2752.59985	1664.31238	-605.90265	2303.75049	1644.05103	-639.91534	1850.88293	1630.74573	-662.62506	1349.33032	1630.83875	-691.32263	903.49634	1644.13989	-714.96832	456.34018	1663.70593	-1114.22620	2808.04419	1664.45850	-1141.08789	2356.21118	1667.47644	-1171.45142	1905.89856	1668.35168	-1198.99121	1404.04553	1668.84741	-1226.83020	952.51251	1667.91052	-1244.86328	506.20911	1667.26843	
255	1.270	-578.05615	2752.60352	1664.32117	-605.92084	2303.75610	1644.04407	-639.94214	1850.89014	1630.69788	-662.66431	1349.34473	1630.79443	-691.35034	903.51666	1644.10059	-714.96008	456.37271	1663.70813	-1114.15906	2808.05811	1664.46277	-1141.06543	2356.22827	1667.48315	-1171.44507	1905.87976	1668.36768	-1198.99304	1404.06689	1668.83630	-1226.83008	952.52679	1667.91772	-1244.87292	506.22037	1667.27161	
256	1.275	-578.08124	2752.60718	1664.30981	-605.95471	2303.73120	1643.99902	-639.96326	1850.90417	1630.66968	-662.69934	1349.34668	1630.73657	-691.30292	903.55823	1644.25354	-714.97345	456.36765	1663.71094	-1114.20557	2808.06714	1664.47571	-1141.10254	2356.21143	1667.48523	-1171.45496	1905.87964	1668.37292	-1199.01233	1404.04480	1668.83008	-1226.83167	952.51257	1667.91602	-1244.86841	506.24323	1667.27429	
257	1.280	-578.08496	2752.60669	1664.29565	-605.97430	2303.76636	1643.95630	-639.97772	1850.90405	1630.61841	-662.71808	1349.35120	1630.67542	-691.30853	903.57697	1644.23853	-714.99866	456.37317	1663.70117	-1114.24841	2808.04956	1664.47815	-1141.09058	2356.23071	1667.48950	-1171.44263	1905.88647	1668.36768	-1199.00879	1404.02087	1668.83337	-1226.83032	952.50903	1667.91357	-1244.83948	506.22440	1667.26965	
258	1.285	-578.07306	2752.59473	1664.31689	-605.95734	2303.75806	1643.91699	-639.98773	1850.91919	1630.57312	-662.71167	1349.36548	1630.62354	-691.32184	903.60669	1644.21228	-714.98883	456.38977	1663.71082	-1114.19409	2808.06470	1664.47864	-1141.10559	2356.23828	1667.48352	-1171.43774	1905.88037	1668.37195	-1199.02576	1403.99854	1668.81396	-1226.83911	952.52203	1667.91528	-1244.85278	506.21759	1667.26758	
259	1.290	-578.09595	2752.59912	1664.30896	-605.95898	2303.76709	1643.89734	-639.98059	1850.91553	1630.53101	-662.70520	1349.37830	1630.58740	-691.39777	903.55243	1643.94568	-714.99054	456.42035	1663.69531	-1114.26147	2808.04224	1664.46008	-1141.10706	2356.24048	1667.47815	-1171.44800	1905.87744	1668.34851	-1198.99084	1404.06775	1668.83435	-1226.82788	952.50037	1667.91772	-1244.85205	506.21512	1667.26794	
260	1.295	-578.11407	2752.60571	1664.30225	-605.96313	2303.75195	1643.85754	-639.96106	1850.90686	1630.50122	-662.68823	1349.37476	1630.55505	-691.28265	903.56525	1644.14697	-715.00775	456.43759	1663.70801	-1114.20093	2808.06104	1664.45142	-1141.09802	2356.21216	1667.48511	-1171.45251	1905.89380	1668.35535	-1199.03406	1404.00684	1668.82727	-1226.85645	952.49268	1667.91248	-1244.84497	506.19336	1667.27551	
261	1.300	-578.10760	2752.60669	1664.30139	-605.96204	2303.76636	1643.86377	-639.95819	1850.86633	1630.49194	-662.64996	1349.35840	1630.54639	-691.27765	903.59967	1644.14160	-714.98126	456.40738	1663.69702	-1114.24817	2808.02417	1664.47461	-1141.08655	2356.23975	1667.48682	-1171.47766	1905.89563	1668.35168	-1199.03992	1403.98828	1668.82104	-1226.84827	952.52130	1667.92346	-1244.86523	506.21252	1667.26477	
262	1.305	-578.06805	2752.59058	1664.33398	-605.94086	2303.75098	1643.85449	-639.91681	1850.88794	1630.49512	-662.62549	1349.35510	1630.54407	-691.32776	903.49792	1643.93420	-714.97101	456.40405	1663.70996	-1114.20850	2808.02295	1664.46741	-1141.10657	2356.22876	1667.46741	-1171.47229	1905.90125	1668.35168	-1199.01135	1404.04431	1668.82373	-1226.85620	952.52838	1667.92444	-1244.87756	506.22516	1667.26270	
